<svg width="392" height="280" viewBox="0 0 392 280" fill="none"
  xmlns="http://www.w3.org/2000/svg">
  <g opacity="0.5">
    <g opacity="0.5">
      <path d="M195.565 220.058C151.071 220.058 115.002 183.989 115.002 139.496C115.002 95.0029 151.071 58.9341 195.565 58.9341C240.058 58.9341 276.127 95.0029 276.127 139.496C276.127 183.989 240.058 220.058 195.565 220.058Z" fill="#FAFAFA"/>
      <path d="M195.565 220.058C151.071 220.058 115.002 183.989 115.002 139.496C115.002 95.0029 151.071 58.9341 195.565 58.9341C240.058 58.9341 276.127 95.0029 276.127 139.496C276.127 183.989 240.058 220.058 195.565 220.058Z" stroke="#C9C9C9" stroke-width="1.42584"/>
    </g>
    <path fill-rule="evenodd" clip-rule="evenodd" d="M312.069 25.1752L81.2446 255.999L80.2363 254.991L311.06 24.167L312.069 25.1752Z" fill="url(#paint0_linear_4448_2395)"/>
    <path fill-rule="evenodd" clip-rule="evenodd" d="M311.061 139.496H80.0684V138.07H311.061V139.496Z" fill="url(#paint1_linear_4448_2395)"/>
    <path opacity="0.5" fill-rule="evenodd" clip-rule="evenodd" d="M195.565 24V254.992H194.139V24H195.565Z" fill="#C9C9C9"/>
    <path opacity="0.5" fill-rule="evenodd" clip-rule="evenodd" d="M80.2362 24.1682L311.06 254.992L310.052 256L79.228 25.1764L80.2362 24.1682Z" fill="url(#paint2_linear_4448_2395)"/>
    <path d="M195.565 173.004C177.058 173.004 162.056 158.002 162.056 139.496C162.056 120.99 177.058 105.988 195.565 105.988C214.07 105.988 229.073 120.99 229.073 139.496C229.073 158.002 214.07 173.004 195.565 173.004Z" fill="white"/>
    <mask id="mask0_4448_2395" style="mask-type:luminance" maskUnits="userSpaceOnUse" x="184" y="128" width="23" height="23">
      <path d="M184.157 128.089H206.971V150.903H184.157V128.089Z" fill="white"/>
    </mask>
    <g mask="url(#mask0_4448_2395)">
      <path fill-rule="evenodd" clip-rule="evenodd" d="M204.832 131.653H186.296V141.192L188.391 139.096L188.704 138.783H194.052L194.095 138.74L199.086 133.749H200.598L204.832 137.984V131.653ZM195.565 140.295L197.746 142.476L198.503 143.232L196.99 144.744L196.234 143.988L193.168 140.922H189.591L186.339 144.173L186.296 144.217V145.912C186.296 146.291 186.446 146.653 186.714 146.921C186.981 147.188 187.344 147.338 187.722 147.338H203.406C203.784 147.338 204.147 147.188 204.415 146.921C204.682 146.653 204.832 146.291 204.832 145.912V141.008L199.842 136.018L195.607 140.252L195.565 140.295ZM184.157 143.504V145.912C184.157 146.381 184.249 146.844 184.428 147.277C184.607 147.709 184.87 148.102 185.201 148.433C185.532 148.764 185.925 149.027 186.358 149.206C186.79 149.385 187.254 149.477 187.722 149.477H203.406C203.874 149.477 204.338 149.385 204.771 149.206C205.203 149.027 205.596 148.764 205.927 148.433C206.258 148.102 206.521 147.709 206.7 147.277C206.879 146.844 206.971 146.381 206.971 145.912V141.721L207.771 140.922L207.015 140.165L206.971 140.122V129.515H184.157V143.331L184.071 143.417L184.157 143.504Z" fill="#666666"/>
    </g>
    <path d="M195.565 173.004C177.058 173.004 162.056 158.002 162.056 139.496C162.056 120.99 177.058 105.988 195.565 105.988C214.07 105.988 229.073 120.99 229.073 139.496C229.073 158.002 214.07 173.004 195.565 173.004Z" stroke="#C9C9C9" stroke-width="1.42584"/>
  </g>
  <defs>
    <linearGradient id="paint0_linear_4448_2395" x1="81.0803" y1="255.157" x2="80.5162" y2="254.591" gradientUnits="userSpaceOnUse">
      <stop stop-color="#C9C9C9" stop-opacity="0"/>
      <stop offset="0.208" stop-color="#C9C9C9"/>
      <stop offset="0.792" stop-color="#C9C9C9"/>
      <stop offset="1" stop-color="#C9C9C9" stop-opacity="0"/>
    </linearGradient>
    <linearGradient id="paint1_linear_4448_2395" x1="80.4071" y1="138.782" x2="80.4085" y2="139.581" gradientUnits="userSpaceOnUse">
      <stop stop-color="#C9C9C9" stop-opacity="0"/>
      <stop offset="0.208" stop-color="#C9C9C9"/>
      <stop offset="0.792" stop-color="#C9C9C9"/>
      <stop offset="1" stop-color="#C9C9C9" stop-opacity="0"/>
    </linearGradient>
    <linearGradient id="paint2_linear_4448_2395" x1="80.0706" y1="23.9329" x2="311.296" y2="255.156" gradientUnits="userSpaceOnUse">
      <stop stop-color="#C9C9C9" stop-opacity="0"/>
      <stop offset="0.208" stop-color="#C9C9C9"/>
      <stop offset="0.792" stop-color="#C9C9C9"/>
      <stop offset="1" stop-color="#C9C9C9" stop-opacity="0"/>
    </linearGradient>
  </defs>
</svg>
